<?xml version="1.0" standalone="no"?>
<!DOCTYPE svg PUBLIC "-//W3C//DTD SVG 20010904//EN"
 "http://www.w3.org/TR/2001/REC-SVG-20010904/DTD/svg10.dtd">
<svg version="1.0" xmlns="http://www.w3.org/2000/svg"
 width="2071.000000pt" height="2071.000000pt" viewBox="0 0 2071.000000 2071.000000"
 preserveAspectRatio="xMidYMid meet">

<g transform="translate(0.000000,2071.000000) scale(0.100000,-0.100000)"
fill="#000000" stroke="none">
<path d="M9985 20684 c-667 -34 -1090 -84 -1648 -194 -1805 -358 -3463 -1186
-4862 -2428 -188 -167 -612 -590 -787 -785 -1264 -1405 -2105 -3077 -2468
-4904 -93 -472 -144 -859 -182 -1393 -16 -229 -16 -1041 0 -1270 38 -534 89
-921 182 -1393 358 -1806 1186 -3463 2428 -4862 167 -188 590 -612 785 -787
1593 -1433 3527 -2320 5637 -2587 448 -57 764 -75 1295 -75 531 0 847 18 1295
75 1435 181 2786 648 4020 1389 585 351 1099 731 1617 1198 195 175 618 599
785 787 1242 1399 2070 3056 2428 4862 93 472 144 859 182 1393 16 229 16
1041 0 1270 -38 534 -89 921 -182 1393 -358 1806 -1186 3463 -2428 4862 -167
188 -590 612 -785 787 -1081 973 -2312 1691 -3673 2144 -831 276 -1675 439
-2609 504 -150 11 -897 21 -1030 14z m-5022 -6490 l37 -7 -4 -1141 c-3 -1103
-6 -1192 -36 -1385 -6 -40 -9 -75 -6 -78 8 -9 56 25 116 83 30 29 74 66 97 83
22 16 44 34 47 40 13 20 265 201 281 201 4 0 25 13 48 28 23 15 56 34 72 42
17 8 49 27 72 42 23 15 47 28 53 28 6 0 39 13 73 29 110 52 304 111 470 143
151 30 178 32 387 32 178 1 245 -3 320 -17 196 -38 248 -52 327 -88 24 -10 46
-19 50 -19 16 0 192 -92 203 -106 7 -8 18 -14 24 -14 7 0 25 -13 41 -30 16
-16 34 -30 40 -30 13 0 135 -122 169 -170 55 -76 116 -169 116 -176 0 -4 6
-15 14 -23 18 -21 66 -109 66 -121 0 -6 9 -29 19 -53 31 -67 98 -283 120 -387
11 -52 23 -108 26 -125 16 -74 26 -148 35 -250 5 -60 15 -150 22 -200 17 -124
17 -925 0 -1050 -7 -49 -17 -133 -21 -185 -9 -102 -75 -444 -91 -472 -6 -10
-10 -31 -10 -47 0 -17 -4 -33 -10 -36 -5 -3 -10 -15 -10 -25 0 -11 -9 -35 -20
-55 -11 -20 -20 -41 -20 -49 0 -22 -114 -238 -167 -316 -66 -97 -296 -323
-393 -386 -90 -58 -237 -134 -261 -134 -10 0 -21 -4 -24 -10 -3 -5 -17 -10
-30 -10 -13 0 -27 -4 -30 -10 -3 -5 -17 -10 -30 -10 -13 0 -27 -4 -30 -10 -3
-5 -15 -10 -26 -10 -10 0 -27 -4 -37 -9 -9 -5 -51 -15 -92 -21 -41 -6 -95 -15
-120 -20 -162 -30 -196 -31 -635 -26 -511 5 -696 16 -925 56 -36 6 -94 15
-130 20 -63 9 -145 22 -223 36 -21 4 -40 11 -43 15 -3 5 -29 9 -58 9 -28 0
-56 4 -62 8 -5 5 -42 15 -82 22 -40 7 -75 17 -78 22 -3 4 -20 8 -39 8 -19 0
-37 4 -40 10 -3 6 -21 10 -40 10 -19 0 -37 5 -40 10 -3 6 -17 10 -30 10 -13 0
-27 5 -30 10 -3 6 -17 10 -30 10 -13 0 -27 4 -30 10 -3 6 -15 10 -26 10 -10 0
-27 4 -37 9 -9 5 -25 12 -34 15 -17 5 -18 167 -18 3083 1 1693 3 3093 6 3111
7 34 27 50 79 63 37 9 616 11 668 3z m7317 -1884 c16 -16 20 -33 20 -94 0 -41
-4 -78 -10 -81 -5 -3 -10 -39 -10 -80 0 -41 -4 -77 -10 -80 -5 -3 -10 -39 -10
-80 0 -41 -4 -77 -10 -80 -5 -3 -10 -26 -10 -51 0 -24 -6 -74 -12 -109 l-13
-65 -247 0 c-154 0 -249 -4 -253 -10 -3 -5 -30 -10 -60 -10 -30 0 -57 -4 -60
-10 -3 -5 -21 -10 -40 -10 -19 0 -37 -4 -40 -10 -3 -5 -21 -10 -40 -10 -19 0
-37 -4 -40 -10 -3 -5 -17 -10 -30 -10 -13 0 -27 -4 -30 -10 -3 -5 -17 -10 -30
-10 -13 0 -27 -4 -30 -10 -3 -5 -17 -10 -30 -10 -13 0 -27 -4 -30 -10 -3 -5
-15 -10 -25 -10 -11 0 -35 -9 -55 -20 -20 -11 -42 -20 -49 -20 -7 0 -48 -18
-91 -40 -43 -22 -83 -40 -90 -40 -6 0 -65 -27 -130 -60 -65 -33 -123 -60 -129
-60 -23 0 -350 -170 -377 -196 l-29 -28 0 -1628 0 -1628 -390 0 -390 0 0 2250
0 2250 288 0 c230 0 292 -3 307 -14 23 -17 35 -107 61 -446 3 -41 10 -79 15
-85 5 -5 9 -39 9 -75 0 -37 3 -69 6 -73 7 -7 39 9 69 35 49 41 459 318 471
318 4 0 15 6 23 14 9 8 42 28 74 44 31 16 63 34 70 40 21 17 189 102 202 102
7 0 47 18 90 40 43 22 86 40 96 40 10 0 21 5 24 10 3 6 17 10 30 10 13 0 27 5
30 10 3 6 17 10 30 10 13 0 27 5 30 10 3 6 17 10 30 10 13 0 27 5 30 10 3 6
17 10 30 10 13 0 27 5 30 10 3 6 21 10 40 10 19 0 37 5 40 10 3 6 26 10 50 10
24 0 47 5 50 10 3 6 30 10 60 10 30 0 57 5 60 10 4 6 85 10 211 10 191 0 205
-1 224 -20z m1215 -110 c4 -16 11 -32 16 -35 5 -4 9 -15 9 -25 0 -11 9 -35 20
-55 11 -20 20 -44 20 -55 0 -10 5 -22 10 -25 6 -3 10 -15 10 -27 0 -11 20 -47
45 -80 25 -33 45 -70 46 -81 3 -85 10 -142 19 -151 5 -5 10 -20 10 -32 0 -13
5 -26 10 -29 6 -3 10 -17 10 -30 0 -13 5 -27 10 -30 6 -3 10 -15 10 -25 0 -11
9 -35 20 -55 11 -20 20 -44 20 -55 0 -10 5 -22 10 -25 6 -3 10 -17 10 -30 0
-13 5 -27 10 -30 6 -3 10 -17 10 -30 0 -13 5 -27 10 -30 6 -3 10 -15 10 -25 0
-11 9 -35 20 -55 11 -20 20 -44 20 -55 0 -10 5 -22 10 -25 6 -3 10 -17 10 -30
0 -13 5 -27 10 -30 6 -3 10 -17 10 -30 0 -13 5 -27 10 -30 6 -3 10 -15 10 -25
0 -11 9 -35 20 -55 11 -20 20 -44 20 -55 0 -10 5 -22 10 -25 6 -3 10 -17 10
-30 0 -13 5 -27 10 -30 6 -3 10 -17 10 -30 0 -13 5 -27 10 -30 6 -3 10 -17 10
-30 0 -13 5 -27 10 -30 6 -3 10 -15 10 -25 0 -11 9 -35 20 -55 11 -20 20 -44
20 -55 0 -10 5 -22 10 -25 6 -3 10 -17 10 -30 0 -13 5 -27 10 -30 6 -3 10 -17
10 -30 0 -13 5 -27 10 -30 6 -3 10 -15 10 -25 0 -11 9 -35 20 -55 11 -20 20
-44 20 -55 0 -10 5 -22 10 -25 6 -3 10 -17 10 -30 0 -13 5 -27 10 -30 6 -3 10
-17 10 -30 0 -13 5 -27 10 -30 6 -3 10 -15 10 -25 0 -11 9 -35 20 -55 11 -20
20 -44 20 -55 0 -10 5 -22 10 -25 6 -3 10 -17 10 -30 0 -13 5 -27 10 -30 6 -3
10 -17 10 -30 0 -13 5 -27 10 -30 6 -3 10 -17 10 -30 0 -13 5 -27 10 -30 6 -3
10 -15 10 -25 0 -11 9 -35 20 -55 11 -20 20 -44 20 -55 0 -10 5 -22 10 -25 6
-3 10 -17 10 -30 0 -13 5 -27 10 -30 6 -3 10 -17 10 -30 0 -13 5 -27 10 -30 6
-3 10 -15 10 -25 0 -11 9 -35 20 -55 11 -20 20 -44 20 -55 0 -10 5 -22 10 -25
6 -3 10 -15 10 -26 0 -10 4 -27 10 -37 5 -9 21 -51 34 -92 13 -41 30 -88 37
-105 29 -71 171 -499 197 -595 l28 -105 56 -3 c36 -2 58 2 65 10 6 7 39 99 73
203 34 105 66 195 70 200 4 6 31 82 60 170 29 88 56 165 60 170 4 6 40 109 80
230 40 121 76 225 80 230 4 6 31 82 60 170 29 88 56 165 60 170 4 6 40 109 80
230 40 121 76 225 80 230 4 6 36 96 70 200 34 105 66 195 70 200 4 6 36 96 70
200 34 105 66 195 70 200 4 6 36 96 70 200 34 105 66 195 70 200 4 6 36 96 70
200 34 105 66 195 70 200 4 6 26 67 49 137 25 74 48 129 57 132 9 3 200 6 425
6 l409 0 0 -23 c0 -24 -37 -144 -50 -162 -4 -5 -18 -41 -30 -80 -12 -38 -26
-74 -30 -80 -4 -5 -13 -28 -20 -50 -7 -22 -16 -44 -20 -50 -4 -5 -18 -41 -30
-80 -12 -38 -26 -74 -30 -80 -4 -5 -18 -41 -30 -80 -12 -38 -26 -74 -30 -80
-4 -5 -18 -41 -30 -80 -12 -38 -26 -74 -30 -80 -4 -5 -13 -28 -20 -50 -7 -22
-16 -44 -20 -50 -4 -5 -18 -41 -30 -80 -12 -38 -26 -74 -30 -80 -4 -5 -18 -41
-30 -80 -12 -38 -26 -74 -30 -80 -4 -5 -18 -41 -30 -80 -12 -38 -26 -74 -30
-80 -4 -5 -13 -28 -20 -50 -7 -22 -16 -44 -20 -50 -4 -5 -18 -41 -30 -80 -12
-38 -26 -74 -30 -80 -4 -5 -18 -41 -30 -80 -12 -38 -26 -74 -30 -80 -4 -5 -18
-41 -30 -80 -12 -38 -26 -74 -30 -80 -4 -5 -13 -28 -20 -50 -7 -22 -16 -44
-20 -50 -4 -5 -18 -41 -30 -80 -12 -38 -26 -74 -30 -80 -4 -5 -18 -41 -30 -80
-12 -38 -26 -74 -30 -80 -4 -5 -18 -41 -30 -80 -12 -38 -26 -74 -30 -80 -4 -5
-13 -28 -20 -50 -7 -22 -16 -44 -20 -50 -4 -5 -18 -41 -30 -80 -12 -38 -26
-74 -30 -80 -4 -5 -18 -41 -30 -80 -12 -38 -26 -74 -30 -80 -4 -5 -18 -41 -30
-80 -12 -38 -26 -74 -30 -80 -4 -5 -13 -28 -20 -50 -7 -22 -16 -44 -20 -50 -4
-5 -18 -41 -30 -80 -12 -38 -26 -74 -30 -80 -4 -5 -18 -41 -30 -80 -12 -38
-26 -74 -30 -80 -4 -5 -18 -41 -30 -80 -12 -38 -26 -74 -30 -80 -4 -5 -13 -28
-20 -50 -7 -22 -16 -44 -20 -50 -4 -5 -18 -41 -30 -80 -12 -38 -26 -74 -30
-80 -4 -5 -18 -41 -30 -80 -12 -38 -26 -74 -30 -80 -4 -5 -18 -41 -30 -80 -12
-38 -26 -74 -30 -80 -4 -5 -13 -28 -20 -50 -7 -22 -16 -44 -20 -50 -4 -5 -18
-41 -30 -80 -12 -38 -26 -74 -30 -80 -4 -5 -18 -41 -30 -80 -12 -38 -26 -74
-30 -80 -4 -5 -13 -26 -19 -47 -15 -47 -217 -447 -236 -468 -8 -9 -15 -20 -15
-24 0 -15 -115 -182 -186 -271 -40 -49 -132 -149 -206 -221 -184 -181 -280
-251 -484 -352 -237 -116 -497 -185 -714 -186 l-85 -1 -34 232 c-19 132 -31
247 -27 266 6 31 10 34 94 61 92 29 442 197 463 222 6 8 17 14 23 14 7 0 25
14 41 30 16 17 33 30 39 30 14 0 326 312 326 326 0 5 14 23 30 39 17 16 30 34
30 40 0 7 9 20 20 30 11 10 20 23 20 30 0 7 9 20 20 30 11 10 20 24 20 30 0 7
7 18 15 25 14 11 135 249 135 264 0 5 13 36 29 70 16 33 33 73 36 89 4 15 11
30 16 32 4 3 6 12 2 20 -4 12 -29 15 -129 15 -114 0 -127 2 -171 26 -94 52
-116 83 -168 244 -15 47 -31 90 -35 95 -4 6 -13 28 -20 50 -7 22 -16 45 -20
50 -4 6 -18 42 -30 80 -12 39 -26 75 -30 80 -4 6 -13 28 -20 50 -7 22 -16 45
-20 50 -4 6 -18 42 -30 80 -12 39 -26 75 -30 80 -4 6 -18 42 -30 80 -12 39
-26 75 -30 80 -4 6 -18 42 -30 80 -12 39 -26 75 -30 80 -4 6 -13 28 -20 50 -7
22 -16 45 -20 50 -4 6 -18 42 -30 80 -12 39 -26 75 -30 80 -4 6 -18 42 -30 80
-12 39 -26 75 -30 80 -4 6 -13 28 -20 50 -7 22 -16 45 -20 50 -4 6 -18 42 -30
80 -12 39 -26 75 -30 80 -4 6 -18 42 -30 80 -12 39 -26 75 -30 80 -4 6 -13 28
-20 50 -7 22 -16 45 -20 50 -4 6 -17 39 -30 75 -12 36 -28 80 -36 98 -9 18
-22 56 -31 85 -8 29 -18 57 -23 62 -4 6 -13 28 -20 50 -7 22 -16 45 -20 50 -4
6 -18 42 -30 80 -12 39 -26 75 -30 80 -3 6 -17 39 -29 75 -12 36 -29 79 -36
95 -7 17 -21 53 -30 80 -9 28 -25 69 -36 92 -10 24 -19 49 -19 57 0 8 -4 17
-9 20 -4 3 -18 38 -31 78 -12 40 -26 78 -30 83 -4 6 -15 35 -25 65 -10 30 -28
79 -41 108 -13 29 -24 58 -24 65 0 7 -4 17 -9 22 -5 6 -19 39 -31 75 -12 36
-28 79 -35 95 -7 17 -21 53 -30 80 -9 28 -25 69 -36 92 -10 24 -19 49 -19 56
0 7 -4 17 -9 23 -5 5 -19 38 -31 74 -12 36 -28 79 -35 95 -7 17 -21 53 -30 80
-9 28 -23 66 -32 85 -20 42 -43 127 -43 158 l0 22 414 0 414 0 7 -30z"/>
</g>
</svg>
