<svg xmlns="http://www.w3.org/2000/svg" viewBox="0 0 800 800"><defs><filter id="a" x="-100%" y="-100%" width="400%" height="400%" filterUnits="objectBoundingBox" primitiveUnits="userSpaceOnUse" color-interpolation-filters="sRGB"><feGaussianBlur stdDeviation="30" x="0%" y="0%" width="100%" height="100%" in="SourceGraphic" result="blur"/></filter><filter id="f" x="-100%" y="-100%" width="400%" height="400%" filterUnits="objectBoundingBox" primitiveUnits="userSpaceOnUse" color-interpolation-filters="sRGB"><feGaussianBlur stdDeviation="2" x="0%" y="0%" width="100%" height="100%" in="SourceGraphic" result="blur"/></filter><filter id="d" x="-100%" y="-100%" width="400%" height="400%" filterUnits="objectBoundingBox" primitiveUnits="userSpaceOnUse" color-interpolation-filters="sRGB"><feDropShadow stdDeviation="10" dx="10" dy="10" flood-color="hsl(322.57,100%,6.78%)" flood-opacity=".2" x="0%" y="0%" width="100%" height="100%" result="dropShadow"/></filter><filter id="g" x="-100%" y="-100%" width="400%" height="400%" filterUnits="objectBoundingBox" primitiveUnits="userSpaceOnUse" color-interpolation-filters="sRGB"><feDropShadow stdDeviation="10" dx="10" dy="10" flood-color="hsl(314.16,91.54%,31.69%)" flood-opacity=".2" x="0%" y="0%" width="100%" height="100%" result="dropShadow"/></filter><radialGradient id="b" r="93%" cx="20%" cy="20%"><stop offset="70%" stop-color="hsl(318, 39%, 89%)" stop-opacity="0"/><stop offset="97%" stop-color="hsl(318.91,13.44%,69.42%)"/></radialGradient><radialGradient id="c" r="65%" cx="28%" cy="20%"><stop offset="0%" stop-color="hsl(0,0%,100%)" stop-opacity=".75"/><stop offset="100%" stop-color="hsl(318, 39%, 89%)" stop-opacity="0"/></radialGradient><linearGradient gradientTransform="rotate(-25)" id="e" x1="50%" y1="0%" x2="50%" y2="100%"><stop offset="20%" stop-color="hsl(321.27,21.21%,54.87%)"/><stop offset="100%" stop-color="hsla(318, 41%, 20%, 1)" stop-opacity="0"/></linearGradient><linearGradient id="h" x1="50%" y1="0%" x2="50%" y2="100%"><stop offset="0%" stop-color="hsl(300,100%,84.5%)"/><stop offset="100%" stop-color="hsla(318, 58%, 55%, 1)" stop-opacity="0"/></linearGradient></defs><g stroke-linecap="round"><path d="M650 450c0 152.96-97.04 276.95-250 276.95-152.96 0-250-124-250-276.95 0-152.96 97.04-276.95 250-276.95 152.96 0 250 124 250 276.95Z" fill="hsl(318.91,13.44%,69.42%)" opacity=".25" filter="url(#a)"/><path d="M650 400c0 161.67-88.33 235.75-250 235.75-161.67 0-250-74.08-250-235.75 0-161.67 88.33-235.75 250-235.75 161.67 0 250 74.08 250 235.75Z" fill="hsl(318, 39%, 89%)"/><path d="M650 400c0 161.67-88.33 235.75-250 235.75-161.67 0-250-74.08-250-235.75 0-161.67 88.33-235.75 250-235.75 161.67 0 250 74.08 250 235.75Z" fill="url(#b)"/><path d="M650 400c0 161.67-88.33 235.75-250 235.75-161.67 0-250-74.08-250-235.75 0-161.67 88.33-235.75 250-235.75 161.67 0 250 74.08 250 235.75Z" fill="url(#c)"/><ellipse rx="24" ry="40.5" cx="364" cy="416" fill="hsla(318, 41%, 20%, 1)" filter="url(#d)"/><ellipse rx="24" ry="40.5" cx="364" cy="416" fill="url(#e)" filter="url(#f)"/><ellipse rx="24" ry="39" cx="475" cy="393" fill="hsla(318, 41%, 20%, 1)" filter="url(#d)"/><ellipse rx="24" ry="39" cx="475" cy="393" fill="url(#e)" filter="url(#f)"/><path d="M350 539q50-56 100 0" stroke-width="25" stroke="hsla(318, 58%, 55%, 1)" fill="none" filter="url(#g)" transform="rotate(342 400 400)"/><path d="M350 539q50-56 100 0" stroke-width="8.33" stroke="url(#h)" fill="none" filter="url(#f)" transform="rotate(342 400 400)"/></g></svg>